# Tiled2Unity generated file. Do not modify by hand.
# Wavefront file for 'Level2_mesh_0005.obj'

# Vertices (Count = 316)
v -64 -70 0
v -66 -70 0
v -66 -68 0
v -64 -68 0
v -110 -70 0
v -112 -70 0
v -112 -68 0
v -110 -68 0
v -64 -72 0
v -66 -72 0
v -66 -70 0
v -64 -70 0
v -110 -72 0
v -112 -72 0
v -112 -70 0
v -110 -70 0
v -68 -74 0
v -70 -74 0
v -70 -72 0
v -68 -72 0
v -70 -74 0
v -72 -74 0
v -72 -72 0
v -70 -72 0
v -88 -74 0
v -90 -74 0
v -90 -72 0
v -88 -72 0
v -98 -74 0
v -100 -74 0
v -100 -72 0
v -98 -72 0
v -104 -74 0
v -106 -74 0
v -106 -72 0
v -104 -72 0
v -80 -78 0
v -82 -78 0
v -82 -76 0
v -80 -76 0
v -80 -80 0
v -82 -80 0
v -82 -78 0
v -80 -78 0
v -82 -80 0
v -84 -80 0
v -84 -78 0
v -82 -78 0
v -72 -82 0
v -74 -82 0
v -74 -80 0
v -72 -80 0
v -92 -82 0
v -94 -82 0
v -94 -80 0
v -92 -80 0
v -72 -84 0
v -74 -84 0
v -74 -82 0
v -72 -82 0
v -98 -84 0
v -100 -84 0
v -100 -82 0
v -98 -82 0
v -72 -86 0
v -74 -86 0
v -74 -84 0
v -72 -84 0
v -98 -86 0
v -100 -86 0
v -100 -84 0
v -98 -84 0
v -104 -86 0
v -106 -86 0
v -106 -84 0
v -104 -84 0
v -108 -86 0
v -110 -86 0
v -110 -84 0
v -108 -84 0
v -68 -88 0
v -70 -88 0
v -70 -86 0
v -68 -86 0
v -108 -88 0
v -110 -88 0
v -110 -86 0
v -108 -86 0
v -80 -90 0
v -82 -90 0
v -82 -88 0
v -80 -88 0
v -80 -92 0
v -82 -92 0
v -82 -90 0
v -80 -90 0
v -90 -92 0
v -92 -92 0
v -92 -90 0
v -90 -90 0
v -96 -94 0
v -98 -94 0
v -98 -92 0
v -96 -92 0
v -98 -94 0
v -100 -94 0
v -100 -92 0
v -98 -92 0
v -104 -94 0
v -106 -94 0
v -106 -92 0
v -104 -92 0
v -74 -96 0
v -76 -96 0
v -76 -94 0
v -74 -94 0
v -84 -96 0
v -86 -96 0
v -86 -94 0
v -84 -94 0
v -86 -96 0
v -88 -96 0
v -88 -94 0
v -86 -94 0
v -96 -96 0
v -98 -96 0
v -98 -94 0
v -96 -94 0
v -98 -96 0
v -100 -96 0
v -100 -94 0
v -98 -94 0
v -106 -96 0
v -108 -96 0
v -108 -94 0
v -106 -94 0
v -84 -98 0
v -86 -98 0
v -86 -96 0
v -84 -96 0
v -86 -98 0
v -88 -98 0
v -88 -96 0
v -86 -96 0
v -110 -98 0
v -112 -98 0
v -112 -96 0
v -110 -96 0
v -64 -100 0
v -66 -100 0
v -66 -98 0
v -64 -98 0
v -110 -100 0
v -112 -100 0
v -112 -98 0
v -110 -98 0
v -64 -102 0
v -66 -102 0
v -66 -100 0
v -64 -100 0
v -84 -106 0
v -86 -106 0
v -86 -104 0
v -84 -104 0
v -96 -106 0
v -98 -106 0
v -98 -104 0
v -96 -104 0
v -102 -106 0
v -104 -106 0
v -104 -104 0
v -102 -104 0
v -104 -106 0
v -106 -106 0
v -106 -104 0
v -104 -104 0
v -134 -106 0
v -136 -106 0
v -136 -104 0
v -134 -104 0
v -52 -108 0
v -54 -108 0
v -54 -106 0
v -52 -106 0
v -58 -108 0
v -60 -108 0
v -60 -106 0
v -58 -106 0
v -60 -108 0
v -62 -108 0
v -62 -106 0
v -60 -106 0
v -92 -108 0
v -94 -108 0
v -94 -106 0
v -92 -106 0
v -102 -108 0
v -104 -108 0
v -104 -106 0
v -102 -106 0
v -104 -108 0
v -106 -108 0
v -106 -106 0
v -104 -106 0
v -134 -108 0
v -136 -108 0
v -136 -106 0
v -134 -106 0
v -52 -110 0
v -54 -110 0
v -54 -108 0
v -52 -108 0
v -64 -110 0
v -66 -110 0
v -66 -108 0
v -64 -108 0
v -66 -110 0
v -68 -110 0
v -68 -108 0
v -66 -108 0
v -72 -110 0
v -74 -110 0
v -74 -108 0
v -72 -108 0
v -78 -110 0
v -80 -110 0
v -80 -108 0
v -78 -108 0
v -92 -110 0
v -94 -110 0
v -94 -108 0
v -92 -108 0
v -94 -110 0
v -96 -110 0
v -96 -108 0
v -94 -108 0
v -96 -110 0
v -98 -110 0
v -98 -108 0
v -96 -108 0
v -98 -110 0
v -100 -110 0
v -100 -108 0
v -98 -108 0
v -106 -110 0
v -108 -110 0
v -108 -108 0
v -106 -108 0
v -116 -110 0
v -118 -110 0
v -118 -108 0
v -116 -108 0
v -120 -110 0
v -122 -110 0
v -122 -108 0
v -120 -108 0
v -130 -110 0
v -132 -110 0
v -132 -108 0
v -130 -108 0
v -56 -112 0
v -58 -112 0
v -58 -110 0
v -56 -110 0
v -64 -112 0
v -66 -112 0
v -66 -110 0
v -64 -110 0
v -66 -112 0
v -68 -112 0
v -68 -110 0
v -66 -110 0
v -94 -112 0
v -96 -112 0
v -96 -110 0
v -94 -110 0
v -96 -112 0
v -98 -112 0
v -98 -110 0
v -96 -110 0
v -58 -118 0
v -60 -118 0
v -60 -116 0
v -58 -116 0
v -54 -120 0
v -56 -120 0
v -56 -118 0
v -54 -118 0
v -64 -122 0
v -66 -122 0
v -66 -120 0
v -64 -120 0
v -54 -124 0
v -56 -124 0
v -56 -122 0
v -54 -122 0
v -56 -124 0
v -58 -124 0
v -58 -122 0
v -56 -122 0
v -58 -124 0
v -60 -124 0
v -60 -122 0
v -58 -122 0
v -64 -124 0
v -66 -124 0
v -66 -122 0
v -64 -122 0
v -54 -126 0
v -56 -126 0
v -56 -124 0
v -54 -124 0
v -56 -126 0
v -58 -126 0
v -58 -124 0
v -56 -124 0

# Texture cooridinates (Count = 37)
vt 0.03333334 0.6333333
vt 0.06666667 0.6333333
vt 0.06666667 0.6666666
vt 0.03333334 0.6666666
vt 0.03333334 0.6
vt 0.06666667 0.6
vt 0.4333333 0
vt 0.4666667 0
vt 0.4666667 0.03333336
vt 0.4333333 0.03333336
vt 0.4333333 0.8333333
vt 0.4666667 0.8333333
vt 0.4666667 0.8666667
vt 0.4333333 0.8666667
vt 0.4 0.8333333
vt 0.4 0.8666667
vt 0.4 0.8
vt 0.4333333 0.8
vt 0.4 0
vt 0.4 0.03333336
vt 0.4666667 0.8
vt 0.1666667 0.6666666
vt 0.2 0.6666666
vt 0.2 0.7
vt 0.1666667 0.7
vt 0.1666667 0.6333333
vt 0.2 0.6333333
vt 0.4666667 0.9
vt 0.5 0.9
vt 0.5 0.9333333
vt 0.4666667 0.9333333
vt 0.5333334 0.9
vt 0.5333334 0.9333333
vt 0.5 0.8666667
vt 0.5333334 0.8666667
vt 0.5 0
vt 0.5 0.03333336

# Normal
vn 0 0 -1

# Mesh description
g Level2_mesh_0005

# Faces
f 1/1/1 2/2/1 3/3/1 4/4/1
f 5/1/1 6/2/1 7/3/1 8/4/1
f 9/5/1 10/6/1 11/2/1 12/1/1
f 13/5/1 14/6/1 15/2/1 16/1/1
f 17/7/1 18/8/1 19/9/1 20/10/1
f 21/11/1 22/12/1 23/13/1 24/14/1
f 25/15/1 26/11/1 27/14/1 28/16/1
f 29/17/1 30/18/1 31/11/1 32/15/1
f 33/11/1 34/12/1 35/13/1 36/14/1
f 37/1/1 38/2/1 39/3/1 40/4/1
f 41/5/1 42/6/1 43/2/1 44/1/1
f 45/19/1 46/7/1 47/10/1 48/20/1
f 49/18/1 50/21/1 51/12/1 52/11/1
f 53/17/1 54/18/1 55/11/1 56/15/1
f 57/22/1 58/23/1 59/24/1 60/25/1
f 61/15/1 62/11/1 63/14/1 64/16/1
f 65/26/1 66/27/1 67/23/1 68/22/1
f 69/18/1 70/21/1 71/12/1 72/11/1
f 73/11/1 74/12/1 75/13/1 76/14/1
f 77/22/1 78/23/1 79/24/1 80/25/1
f 81/17/1 82/18/1 83/11/1 84/15/1
f 85/26/1 86/27/1 87/23/1 88/22/1
f 89/1/1 90/2/1 91/3/1 92/4/1
f 93/5/1 94/6/1 95/2/1 96/1/1
f 97/11/1 98/12/1 99/13/1 100/14/1
f 101/1/1 102/2/1 103/3/1 104/4/1
f 105/22/1 106/23/1 107/24/1 108/25/1
f 109/17/1 110/18/1 111/11/1 112/15/1
f 113/11/1 114/12/1 115/13/1 116/14/1
f 117/28/1 118/29/1 119/30/1 120/31/1
f 121/29/1 122/32/1 123/33/1 124/30/1
f 125/5/1 126/6/1 127/2/1 128/1/1
f 129/26/1 130/27/1 131/23/1 132/22/1
f 133/7/1 134/8/1 135/9/1 136/10/1
f 137/13/1 138/34/1 139/29/1 140/28/1
f 141/34/1 142/35/1 143/32/1 144/29/1
f 145/1/1 146/2/1 147/3/1 148/4/1
f 149/1/1 150/2/1 151/3/1 152/4/1
f 153/5/1 154/6/1 155/2/1 156/1/1
f 157/5/1 158/6/1 159/2/1 160/1/1
f 161/18/1 162/21/1 163/12/1 164/11/1
f 165/15/1 166/11/1 167/14/1 168/16/1
f 169/28/1 170/29/1 171/30/1 172/31/1
f 173/29/1 174/32/1 175/33/1 176/30/1
f 177/1/1 178/2/1 179/3/1 180/4/1
f 181/1/1 182/2/1 183/3/1 184/4/1
f 185/11/1 186/12/1 187/13/1 188/14/1
f 189/8/1 190/36/1 191/37/1 192/9/1
f 193/1/1 194/2/1 195/3/1 196/4/1
f 197/13/1 198/34/1 199/29/1 200/28/1
f 201/34/1 202/35/1 203/32/1 204/29/1
f 205/5/1 206/6/1 207/2/1 208/1/1
f 209/5/1 210/6/1 211/2/1 212/1/1
f 213/22/1 214/23/1 215/24/1 216/25/1
f 217/22/1 218/23/1 219/24/1 220/25/1
f 221/17/1 222/18/1 223/11/1 224/15/1
f 225/15/1 226/11/1 227/14/1 228/16/1
f 229/5/1 230/6/1 231/2/1 232/1/1
f 233/22/1 234/23/1 235/24/1 236/25/1
f 237/22/1 238/23/1 239/24/1 240/25/1
f 241/18/1 242/21/1 243/12/1 244/11/1
f 245/11/1 246/12/1 247/13/1 248/14/1
f 249/17/1 250/18/1 251/11/1 252/15/1
f 253/7/1 254/8/1 255/9/1 256/10/1
f 257/11/1 258/12/1 259/13/1 260/14/1
f 261/18/1 262/21/1 263/12/1 264/11/1
f 265/26/1 266/27/1 267/23/1 268/22/1
f 269/26/1 270/27/1 271/23/1 272/22/1
f 273/26/1 274/27/1 275/23/1 276/22/1
f 277/26/1 278/27/1 279/23/1 280/22/1
f 281/17/1 282/18/1 283/11/1 284/15/1
f 285/8/1 286/36/1 287/37/1 288/9/1
f 289/1/1 290/2/1 291/3/1 292/4/1
f 293/22/1 294/23/1 295/24/1 296/25/1
f 297/22/1 298/23/1 299/24/1 300/25/1
f 301/15/1 302/11/1 303/14/1 304/16/1
f 305/5/1 306/6/1 307/2/1 308/1/1
f 309/26/1 310/27/1 311/23/1 312/22/1
f 313/26/1 314/27/1 315/23/1 316/22/1

