# Tiled2Unity generated file. Do not modify by hand.
# Wavefront file for 'Level2_mesh_0004.obj'

# Vertices (Count = 12)
v -126 -108 0
v -128 -108 0
v -128 -106 0
v -126 -106 0
v -126 -110 0
v -128 -110 0
v -128 -108 0
v -126 -108 0
v -126 -112 0
v -128 -112 0
v -128 -110 0
v -126 -110 0

# Texture cooridinates (Count = 8)
vt 0.5666667 0.8666667
vt 0.6 0.8666667
vt 0.6 0.9
vt 0.5666667 0.9
vt 0.5666667 0.8333333
vt 0.6 0.8333333
vt 0.5666667 0.8
vt 0.6 0.8

# Normal
vn 0 0 -1

# Mesh description
g Level2_mesh_0004

# Faces
f 1/1/1 2/2/1 3/3/1 4/4/1
f 5/5/1 6/6/1 7/2/1 8/1/1
f 9/7/1 10/8/1 11/6/1 12/5/1

